<?xml version="1.0" encoding="utf-8"?>
<!-- Generator: Adobe Illustrator 26.4.1, SVG Export Plug-In . SVG Version: 6.00 Build 0)  -->
<svg version="1.1" id="Layer_1" xmlns="http://www.w3.org/2000/svg" xmlns:xlink="http://www.w3.org/1999/xlink" x="0px" y="0px"
	 viewBox="0 0 399.172 84.109" enable-background="new 0 0 399.172 84.109" xml:space="preserve">
<g>
	<g>
		<g>
			<g>
				<path d="M142.393,62.556c0.266,0.307,0.559,0.541,0.88,0.707c0.321,0.165,0.682,0.247,1.083,0.247
					c0.481,0,0.872-0.13,1.173-0.391c0.301-0.261,0.452-0.597,0.452-1.008c0-0.391-0.096-0.704-0.286-0.94
					c-0.19-0.236-0.453-0.435-0.79-0.602c-0.336-0.165-0.724-0.328-1.165-0.488c-0.261-0.091-0.552-0.213-0.872-0.369
					c-0.321-0.155-0.627-0.35-0.918-0.585c-0.29-0.236-0.531-0.526-0.721-0.872c-0.19-0.346-0.286-0.765-0.286-1.257
					c0-0.561,0.146-1.054,0.436-1.481c0.291-0.425,0.684-0.757,1.181-0.993c0.496-0.236,1.06-0.353,1.692-0.353
					c0.622,0,1.163,0.11,1.624,0.33c0.461,0.221,0.849,0.503,1.165,0.843c0.316,0.341,0.564,0.698,0.745,1.069l-1.444,0.811
					c-0.13-0.261-0.296-0.503-0.496-0.729c-0.2-0.226-0.434-0.406-0.699-0.541c-0.266-0.137-0.574-0.204-0.924-0.204
					c-0.491,0-0.853,0.114-1.083,0.34c-0.231,0.224-0.345,0.488-0.345,0.788c0,0.272,0.082,0.515,0.248,0.731
					c0.165,0.214,0.423,0.419,0.774,0.609c0.351,0.191,0.807,0.386,1.369,0.587c0.311,0.11,0.624,0.251,0.94,0.421
					c0.316,0.17,0.604,0.384,0.865,0.64c0.261,0.256,0.468,0.554,0.623,0.894c0.156,0.341,0.233,0.742,0.233,1.204
					c0,0.491-0.096,0.932-0.285,1.323c-0.19,0.391-0.452,0.721-0.782,0.986s-0.704,0.47-1.121,0.617
					c-0.416,0.145-0.849,0.218-1.3,0.218c-0.622,0-1.196-0.124-1.722-0.369c-0.526-0.246-0.985-0.574-1.376-0.985
					c-0.391-0.411-0.702-0.858-0.932-1.339l1.323-0.917C141.88,61.896,142.128,62.251,142.393,62.556z"/>
				<path d="M149.777,54.502c0.206-0.19,0.444-0.285,0.715-0.285c0.29,0,0.533,0.096,0.729,0.285
					c0.196,0.191,0.294,0.427,0.294,0.707c0,0.27-0.097,0.505-0.294,0.699c-0.195,0.196-0.439,0.294-0.729,0.294
					c-0.27,0-0.509-0.097-0.715-0.294c-0.205-0.195-0.308-0.429-0.308-0.699C149.47,54.929,149.572,54.693,149.777,54.502z
					 M151.289,57.962v6.918h-1.594v-6.918H151.289z"/>
				<path d="M163.426,64.879h-1.624v-4.21c0-0.523-0.093-0.91-0.278-1.166c-0.186-0.256-0.479-0.384-0.88-0.384
					c-0.271,0-0.51,0.061-0.715,0.181c-0.205,0.12-0.366,0.295-0.481,0.526c-0.115,0.231-0.173,0.511-0.173,0.843v4.21h-1.624v-4.21
					c0-0.523-0.093-0.91-0.278-1.166c-0.186-0.256-0.479-0.384-0.88-0.384c-0.281,0-0.524,0.061-0.73,0.181
					c-0.205,0.12-0.364,0.295-0.474,0.526c-0.11,0.231-0.165,0.511-0.165,0.843v4.21h-1.594v-6.918h1.594v1.008
					c0.2-0.381,0.463-0.67,0.789-0.864c0.326-0.196,0.709-0.294,1.151-0.294c0.511,0,0.934,0.106,1.271,0.315
					c0.336,0.211,0.579,0.518,0.73,0.919c0.24-0.401,0.543-0.707,0.909-0.919c0.366-0.209,0.784-0.315,1.256-0.315
					c0.491,0,0.9,0.102,1.225,0.308c0.326,0.204,0.569,0.508,0.73,0.909c0.16,0.402,0.241,0.889,0.241,1.459V64.879z"/>
				<path d="M165.441,68.188V57.962h1.639v10.226H165.441z M172.343,63.384c-0.311,0.546-0.721,0.961-1.233,1.248
					c-0.511,0.285-1.068,0.427-1.67,0.427c-0.591,0-1.105-0.147-1.541-0.444c-0.436-0.295-0.773-0.716-1.008-1.263
					c-0.236-0.546-0.354-1.191-0.354-1.933c0-0.75,0.118-1.398,0.354-1.939c0.235-0.541,0.571-0.96,1.008-1.255
					c0.436-0.297,0.95-0.444,1.541-0.444c0.602,0,1.158,0.142,1.67,0.427c0.511,0.287,0.922,0.701,1.233,1.242
					c0.311,0.541,0.467,1.197,0.467,1.969C172.81,62.183,172.654,62.836,172.343,63.384z M170.839,60.241
					c-0.19-0.327-0.444-0.572-0.759-0.737c-0.316-0.167-0.664-0.249-1.045-0.249c-0.311,0-0.617,0.082-0.918,0.249
					c-0.301,0.165-0.549,0.409-0.745,0.729c-0.195,0.322-0.293,0.717-0.293,1.187c0,0.472,0.097,0.867,0.293,1.189
					c0.195,0.322,0.444,0.564,0.745,0.729c0.301,0.167,0.607,0.249,0.918,0.249c0.381,0,0.729-0.082,1.045-0.249
					c0.316-0.165,0.569-0.411,0.759-0.737c0.19-0.325,0.286-0.719,0.286-1.181C171.125,60.96,171.03,60.565,170.839,60.241z"/>
				<path d="M175.983,53.15v11.73h-1.624V53.15H175.983z"/>
				<path d="M178.305,54.502c0.206-0.19,0.444-0.285,0.715-0.285c0.29,0,0.533,0.096,0.729,0.285
					c0.196,0.191,0.294,0.427,0.294,0.707c0,0.27-0.097,0.505-0.294,0.699c-0.195,0.196-0.439,0.294-0.729,0.294
					c-0.27,0-0.509-0.097-0.715-0.294c-0.205-0.195-0.308-0.429-0.308-0.699C177.998,54.929,178.1,54.693,178.305,54.502z
					 M179.817,57.962v6.918h-1.594v-6.918H179.817z"/>
				<path d="M185.457,57.962v1.428h-3.971v-1.428H185.457z M184.938,54.578c-0.125-0.049-0.253-0.076-0.383-0.076
					c-0.15,0-0.278,0.041-0.383,0.12c-0.106,0.081-0.188,0.211-0.248,0.392c-0.06,0.18-0.09,0.416-0.09,0.706v9.159h-1.595v-9.474
					c0-0.543,0.088-0.991,0.264-1.347c0.175-0.355,0.428-0.625,0.759-0.811c0.331-0.185,0.736-0.279,1.218-0.279
					c0.27,0,0.506,0.036,0.707,0.106c0.2,0.071,0.374,0.155,0.519,0.256c0.146,0.101,0.258,0.201,0.339,0.302l-0.767,1.263
					C185.176,54.733,185.063,54.629,184.938,54.578z"/>
				<path d="M188.314,68.188h-1.729l1.804-4.119l-2.782-6.107h1.865l2.211,5.475l-0.767-0.046l2.165-5.429h1.745L188.314,68.188z"/>
				<path d="M195.548,63.692l-1.745,3.758l-1.203-0.33l1.323-3.895L195.548,63.692z"/>
				<path d="M204.081,61.571c0.336,0.561,0.778,0.994,1.324,1.301c0.546,0.305,1.14,0.458,1.782,0.458
					c0.501,0,0.952-0.066,1.353-0.196c0.402-0.13,0.764-0.308,1.091-0.534c0.326-0.224,0.609-0.478,0.849-0.759v2.106
					c-0.441,0.36-0.917,0.637-1.428,0.826c-0.512,0.191-1.154,0.285-1.925,0.285c-0.773,0-1.492-0.13-2.158-0.391
					c-0.667-0.261-1.246-0.637-1.737-1.128c-0.491-0.49-0.875-1.07-1.15-1.736c-0.276-0.666-0.414-1.397-0.414-2.188
					s0.138-1.52,0.414-2.188c0.275-0.666,0.659-1.245,1.15-1.736s1.07-0.867,1.737-1.128c0.666-0.261,1.385-0.391,2.158-0.391
					c0.772,0,1.413,0.096,1.925,0.285c0.511,0.191,0.987,0.467,1.428,0.828v2.104c-0.241-0.28-0.524-0.533-0.849-0.759
					c-0.327-0.226-0.689-0.404-1.091-0.534c-0.401-0.13-0.852-0.195-1.353-0.195c-0.641,0-1.236,0.152-1.782,0.458
					c-0.547,0.305-0.988,0.737-1.324,1.293c-0.336,0.556-0.504,1.21-0.504,1.962C203.578,60.358,203.746,61.009,204.081,61.571z"/>
				<path d="M214.511,63.316c0.21,0.27,0.531,0.406,0.962,0.406c0.311,0,0.581-0.063,0.812-0.188
					c0.231-0.125,0.411-0.307,0.542-0.543c0.13-0.234,0.195-0.508,0.195-0.82v-4.21h1.624v6.918h-1.624v-1.067
					c-0.221,0.401-0.504,0.704-0.85,0.909c-0.345,0.206-0.759,0.308-1.24,0.308c-0.773,0-1.366-0.241-1.783-0.722
					c-0.416-0.48-0.623-1.133-0.623-1.954v-4.391h1.669v4.21C214.195,62.663,214.301,63.044,214.511,63.316z"/>
				<path d="M221.708,63.232c0.226,0.176,0.453,0.307,0.684,0.392c0.231,0.084,0.461,0.127,0.692,0.127
					c0.291,0,0.519-0.064,0.684-0.196c0.166-0.129,0.248-0.31,0.248-0.541c0-0.2-0.065-0.373-0.195-0.518
					c-0.13-0.147-0.311-0.272-0.542-0.376c-0.231-0.106-0.501-0.214-0.812-0.325c-0.311-0.119-0.619-0.262-0.924-0.427
					c-0.307-0.167-0.557-0.384-0.752-0.655c-0.196-0.27-0.294-0.612-0.294-1.022c0-0.422,0.107-0.772,0.323-1.054
					c0.215-0.28,0.506-0.488,0.872-0.623c0.366-0.135,0.759-0.203,1.181-0.203c0.381,0,0.739,0.054,1.075,0.165
					c0.336,0.11,0.639,0.256,0.909,0.437c0.271,0.18,0.501,0.386,0.692,0.615l-0.902,0.963c-0.231-0.27-0.506-0.491-0.827-0.661
					c-0.322-0.17-0.652-0.256-0.993-0.256c-0.231,0-0.421,0.049-0.571,0.15c-0.15,0.101-0.226,0.246-0.226,0.437
					c0,0.16,0.068,0.302,0.204,0.427c0.135,0.127,0.316,0.239,0.541,0.34c0.226,0.099,0.479,0.204,0.759,0.315
					c0.381,0.15,0.732,0.317,1.053,0.496c0.321,0.18,0.579,0.401,0.774,0.661s0.294,0.602,0.294,1.022
					c0,0.653-0.223,1.176-0.67,1.572c-0.446,0.397-1.05,0.595-1.812,0.595c-0.471,0-0.905-0.073-1.3-0.219
					c-0.397-0.145-0.742-0.335-1.038-0.571c-0.296-0.236-0.543-0.483-0.745-0.745l0.948-0.947
					C221.259,62.849,221.482,63.057,221.708,63.232z"/>
				<path d="M230.062,57.962v1.428h-3.926v-1.428H230.062z M228.903,55.556v9.324h-1.609v-9.324H228.903z"/>
				<path d="M231.137,59.541c0.326-0.543,0.769-0.966,1.331-1.271c0.562-0.305,1.198-0.458,1.91-0.458
					c0.712,0,1.346,0.153,1.903,0.458c0.557,0.305,1,0.729,1.331,1.271c0.331,0.541,0.496,1.168,0.496,1.878
					c0,0.703-0.166,1.328-0.496,1.873s-0.774,0.973-1.331,1.278c-0.557,0.307-1.191,0.458-1.903,0.458
					c-0.712,0-1.348-0.152-1.91-0.458c-0.562-0.305-1.005-0.732-1.331-1.278c-0.326-0.546-0.489-1.171-0.489-1.873
					C230.648,60.709,230.811,60.082,231.137,59.541z M232.588,62.556c0.181,0.327,0.426,0.582,0.737,0.767
					c0.31,0.186,0.661,0.279,1.052,0.279c0.381,0,0.73-0.092,1.046-0.279c0.316-0.185,0.564-0.44,0.745-0.767
					c0.181-0.325,0.27-0.704,0.27-1.136c0-0.43-0.09-0.811-0.27-1.143c-0.181-0.33-0.429-0.585-0.745-0.767
					c-0.316-0.18-0.665-0.27-1.046-0.27c-0.391,0-0.742,0.091-1.052,0.27c-0.311,0.181-0.557,0.437-0.737,0.767
					c-0.181,0.331-0.27,0.712-0.27,1.143C232.318,61.852,232.408,62.231,232.588,62.556z"/>
				<path d="M249.537,64.879h-1.624v-4.21c0-0.523-0.093-0.91-0.278-1.166c-0.186-0.256-0.479-0.384-0.88-0.384
					c-0.271,0-0.51,0.061-0.715,0.181c-0.205,0.12-0.366,0.295-0.481,0.526c-0.115,0.231-0.173,0.511-0.173,0.843v4.21h-1.624v-4.21
					c0-0.523-0.093-0.91-0.278-1.166c-0.186-0.256-0.479-0.384-0.88-0.384c-0.281,0-0.524,0.061-0.73,0.181
					c-0.205,0.12-0.364,0.295-0.474,0.526c-0.11,0.231-0.165,0.511-0.165,0.843v4.21h-1.594v-6.918h1.594v1.008
					c0.2-0.381,0.463-0.67,0.789-0.864c0.326-0.196,0.709-0.294,1.151-0.294c0.511,0,0.934,0.106,1.271,0.315
					c0.336,0.211,0.579,0.518,0.73,0.919c0.24-0.401,0.543-0.707,0.909-0.919c0.366-0.209,0.784-0.315,1.256-0.315
					c0.491,0,0.9,0.102,1.225,0.308c0.326,0.204,0.569,0.508,0.73,0.909c0.16,0.402,0.241,0.889,0.241,1.459V64.879z"/>
				<path d="M251.859,54.502c0.206-0.19,0.444-0.285,0.715-0.285c0.29,0,0.533,0.096,0.729,0.285
					c0.196,0.191,0.294,0.427,0.294,0.707c0,0.27-0.097,0.505-0.294,0.699c-0.195,0.196-0.439,0.294-0.729,0.294
					c-0.27,0-0.509-0.097-0.715-0.294c-0.205-0.195-0.308-0.429-0.308-0.699C251.552,54.929,251.654,54.693,251.859,54.502z
					 M253.371,57.962v6.918h-1.594v-6.918H253.371z"/>
				<path d="M255.326,59.466v-1.504h6.316l-3.954,5.414h3.579v1.504H254.8l4.03-5.414H255.326z"/>
				<path d="M263.831,64.579c-0.537-0.302-0.95-0.722-1.241-1.263c-0.291-0.543-0.436-1.174-0.436-1.896
					c0-0.731,0.148-1.367,0.444-1.91c0.296-0.541,0.715-0.96,1.256-1.255c0.542-0.295,1.178-0.444,1.91-0.444
					c0.731,0,1.353,0.14,1.864,0.421c0.511,0.28,0.905,0.684,1.181,1.21c0.275,0.526,0.414,1.161,0.414,1.903
					c0,0.081-0.003,0.165-0.008,0.256s-0.012,0.155-0.022,0.195h-6.076v-1.111h4.692l-0.496,0.691
					c0.03-0.059,0.063-0.142,0.098-0.247c0.035-0.106,0.053-0.193,0.053-0.264c0-0.371-0.073-0.691-0.219-0.963
					c-0.145-0.27-0.345-0.48-0.601-0.632c-0.256-0.15-0.554-0.224-0.895-0.224c-0.411,0-0.762,0.089-1.052,0.27
					c-0.291,0.18-0.512,0.44-0.662,0.782c-0.15,0.341-0.231,0.762-0.241,1.263c0,0.501,0.075,0.925,0.226,1.271
					c0.15,0.345,0.374,0.609,0.669,0.788c0.296,0.181,0.655,0.272,1.076,0.272c0.44,0,0.827-0.091,1.158-0.272
					c0.331-0.18,0.606-0.455,0.827-0.826l1.398,0.571c-0.36,0.622-0.827,1.088-1.398,1.398c-0.571,0.312-1.258,0.467-2.061,0.467
					C264.986,65.03,264.367,64.879,263.831,64.579z"/>
				<path d="M272.667,63.692l-1.745,3.758l-1.203-0.33l1.323-3.895L272.667,63.692z"/>
				<path d="M280.44,63.323c0.111,0.165,0.264,0.289,0.459,0.369c0.195,0.079,0.418,0.12,0.669,0.12c0.321,0,0.614-0.066,0.88-0.196
					s0.482-0.323,0.647-0.579c0.165-0.256,0.248-0.554,0.248-0.895l0.24,0.902c0,0.442-0.128,0.81-0.383,1.107
					c-0.256,0.295-0.576,0.516-0.962,0.661c-0.386,0.145-0.78,0.218-1.181,0.218c-0.431,0-0.832-0.086-1.203-0.256
					c-0.371-0.17-0.667-0.421-0.887-0.752c-0.221-0.33-0.331-0.732-0.331-1.202c0-0.673,0.235-1.205,0.707-1.603
					c0.471-0.396,1.138-0.594,2-0.594c0.461,0,0.859,0.051,1.196,0.15c0.336,0.101,0.613,0.219,0.834,0.355
					c0.22,0.135,0.376,0.257,0.466,0.368v0.828c-0.311-0.221-0.642-0.381-0.992-0.482c-0.351-0.101-0.722-0.15-1.113-0.15
					c-0.341,0-0.617,0.043-0.827,0.127c-0.211,0.086-0.369,0.203-0.474,0.353c-0.105,0.152-0.157,0.336-0.157,0.557
					C280.275,62.96,280.33,63.158,280.44,63.323z M279.102,58.623c0.311-0.19,0.714-0.376,1.21-0.556
					c0.496-0.181,1.065-0.27,1.708-0.27c0.571,0,1.075,0.084,1.511,0.256c0.435,0.17,0.779,0.414,1.03,0.729
					c0.251,0.317,0.376,0.704,0.376,1.166v4.932h-1.594v-4.617c0-0.219-0.038-0.401-0.113-0.541s-0.178-0.256-0.308-0.346
					c-0.13-0.089-0.286-0.155-0.467-0.195c-0.18-0.041-0.376-0.061-0.586-0.061c-0.321,0-0.624,0.038-0.909,0.114
					c-0.286,0.074-0.532,0.165-0.737,0.27c-0.205,0.106-0.359,0.193-0.458,0.262L279.102,58.623z"/>
				<path d="M290.968,59.51c-0.21-0.261-0.536-0.391-0.977-0.391c-0.301,0-0.566,0.063-0.797,0.188
					c-0.231,0.125-0.411,0.307-0.542,0.543c-0.13,0.234-0.195,0.508-0.195,0.82v4.21h-1.624v-6.918h1.624v1.067
					c0.221-0.411,0.504-0.716,0.85-0.917c0.345-0.2,0.759-0.3,1.241-0.3c0.782,0,1.378,0.237,1.789,0.714
					c0.411,0.477,0.617,1.131,0.617,1.962v4.391h-1.67v-4.21C291.284,60.156,291.179,59.771,290.968,59.51z"/>
				<path d="M294.969,59.474c0.31-0.538,0.724-0.948,1.24-1.234c0.516-0.287,1.07-0.429,1.662-0.429c0.581,0,1.09,0.145,1.526,0.435
					c0.436,0.292,0.782,0.704,1.037,1.242c0.256,0.536,0.384,1.181,0.384,1.931c0,0.742-0.128,1.384-0.384,1.926
					c-0.256,0.541-0.601,0.956-1.037,1.248c-0.436,0.29-0.945,0.435-1.526,0.435c-0.592,0-1.146-0.142-1.662-0.429
					c-0.516-0.285-0.93-0.699-1.24-1.24c-0.311-0.541-0.467-1.189-0.467-1.941C294.502,60.659,294.658,60.01,294.969,59.474z
					 M296.472,62.609c0.19,0.331,0.444,0.582,0.76,0.752c0.316,0.17,0.659,0.256,1.03,0.256c0.311,0,0.619-0.086,0.925-0.256
					c0.305-0.17,0.556-0.419,0.752-0.744c0.195-0.327,0.293-0.726,0.293-1.197c0-0.47-0.097-0.869-0.293-1.196
					c-0.196-0.325-0.447-0.572-0.752-0.744c-0.306-0.17-0.614-0.256-0.925-0.256c-0.371,0-0.714,0.086-1.03,0.256
					c-0.316,0.172-0.57,0.421-0.76,0.752c-0.19,0.331-0.285,0.727-0.285,1.187C296.187,61.881,296.281,62.277,296.472,62.609z
					 M301.871,53.15v11.73h-1.639V53.15H301.871z"/>
				<path d="M310.345,61.571c0.336,0.561,0.778,0.994,1.324,1.301c0.546,0.305,1.14,0.458,1.782,0.458
					c0.501,0,0.952-0.066,1.353-0.196c0.402-0.13,0.764-0.308,1.091-0.534c0.326-0.224,0.608-0.478,0.849-0.759v2.106
					c-0.441,0.36-0.917,0.637-1.428,0.826c-0.512,0.191-1.154,0.285-1.925,0.285c-0.773,0-1.492-0.13-2.158-0.391
					c-0.667-0.261-1.246-0.637-1.737-1.128c-0.491-0.49-0.875-1.07-1.15-1.736c-0.276-0.666-0.414-1.397-0.414-2.188
					s0.138-1.52,0.414-2.188c0.275-0.666,0.659-1.245,1.15-1.736s1.07-0.867,1.737-1.128c0.666-0.261,1.385-0.391,2.158-0.391
					c0.772,0,1.413,0.096,1.925,0.285c0.511,0.191,0.987,0.467,1.428,0.828v2.104c-0.241-0.28-0.524-0.533-0.849-0.759
					c-0.327-0.226-0.689-0.404-1.091-0.534c-0.401-0.13-0.852-0.195-1.353-0.195c-0.642,0-1.236,0.152-1.782,0.458
					c-0.547,0.305-0.988,0.737-1.324,1.293c-0.336,0.556-0.504,1.21-0.504,1.962C309.841,60.358,310.009,61.009,310.345,61.571z"/>
				<path d="M318.752,59.541c0.326-0.543,0.769-0.966,1.331-1.271c0.561-0.305,1.198-0.458,1.91-0.458
					c0.712,0,1.346,0.153,1.903,0.458c0.557,0.305,1,0.729,1.331,1.271c0.331,0.541,0.496,1.168,0.496,1.878
					c0,0.703-0.166,1.328-0.496,1.873s-0.774,0.973-1.331,1.278c-0.557,0.307-1.191,0.458-1.903,0.458
					c-0.712,0-1.348-0.152-1.91-0.458c-0.562-0.305-1.005-0.732-1.331-1.278c-0.326-0.546-0.489-1.171-0.489-1.873
					C318.263,60.709,318.426,60.082,318.752,59.541z M320.203,62.556c0.181,0.327,0.426,0.582,0.737,0.767
					c0.31,0.186,0.661,0.279,1.052,0.279c0.381,0,0.73-0.092,1.046-0.279c0.316-0.185,0.564-0.44,0.745-0.767
					c0.181-0.325,0.27-0.704,0.27-1.136c0-0.43-0.09-0.811-0.27-1.143c-0.181-0.33-0.429-0.585-0.745-0.767
					c-0.316-0.18-0.665-0.27-1.046-0.27c-0.391,0-0.742,0.091-1.052,0.27c-0.311,0.181-0.557,0.437-0.737,0.767
					c-0.181,0.331-0.27,0.712-0.27,1.143C319.932,61.852,320.022,62.231,320.203,62.556z"/>
				<path d="M331.392,59.51c-0.21-0.261-0.536-0.391-0.977-0.391c-0.301,0-0.566,0.063-0.797,0.188
					c-0.231,0.125-0.411,0.307-0.542,0.543c-0.13,0.234-0.195,0.508-0.195,0.82v4.21h-1.624v-6.918h1.624v1.067
					c0.221-0.411,0.504-0.716,0.85-0.917c0.345-0.2,0.759-0.3,1.241-0.3c0.782,0,1.378,0.237,1.789,0.714
					c0.411,0.477,0.617,1.131,0.617,1.962v4.391h-1.67v-4.21C331.708,60.156,331.603,59.771,331.392,59.51z"/>
				<path d="M335.393,59.451c0.31-0.541,0.724-0.955,1.24-1.242c0.516-0.285,1.07-0.427,1.662-0.427
					c0.591,0,1.102,0.147,1.534,0.444c0.431,0.295,0.767,0.714,1.008,1.255c0.241,0.541,0.361,1.189,0.361,1.939
					c0,0.742-0.12,1.387-0.361,1.933c-0.241,0.547-0.576,0.968-1.008,1.263c-0.431,0.297-0.942,0.444-1.534,0.444
					c-0.592,0-1.146-0.142-1.662-0.427c-0.516-0.287-0.93-0.703-1.24-1.248c-0.311-0.547-0.467-1.201-0.467-1.964
					C334.926,60.648,335.082,59.992,335.393,59.451z M336.896,62.6c0.19,0.327,0.444,0.572,0.76,0.737
					c0.316,0.167,0.659,0.249,1.03,0.249c0.311,0,0.619-0.082,0.925-0.249c0.305-0.165,0.556-0.407,0.752-0.729
					c0.195-0.322,0.293-0.717,0.293-1.189c0-0.47-0.097-0.866-0.293-1.187c-0.196-0.32-0.447-0.564-0.752-0.729
					c-0.306-0.167-0.614-0.249-0.925-0.249c-0.371,0-0.714,0.082-1.03,0.249c-0.316,0.165-0.57,0.411-0.76,0.737
					c-0.19,0.325-0.285,0.719-0.285,1.179C336.61,61.881,336.705,62.276,336.896,62.6z M340.656,57.962h1.639v10.226h-1.639V57.962z
					"/>
				<path d="M346.295,63.316c0.21,0.27,0.531,0.406,0.962,0.406c0.311,0,0.581-0.063,0.812-0.188
					c0.231-0.125,0.411-0.307,0.542-0.543c0.13-0.234,0.195-0.508,0.195-0.82v-4.21h1.624v6.918h-1.624v-1.067
					c-0.221,0.401-0.504,0.704-0.85,0.909c-0.345,0.206-0.759,0.308-1.24,0.308c-0.773,0-1.366-0.241-1.783-0.722
					c-0.416-0.48-0.623-1.133-0.623-1.954v-4.391h1.669v4.21C345.979,62.663,346.084,63.044,346.295,63.316z"/>
				<path d="M353.657,64.579c-0.537-0.302-0.95-0.722-1.241-1.263c-0.291-0.543-0.436-1.174-0.436-1.896
					c0-0.731,0.148-1.367,0.444-1.91c0.296-0.541,0.715-0.96,1.256-1.255c0.542-0.295,1.178-0.444,1.91-0.444
					c0.731,0,1.353,0.14,1.864,0.421c0.511,0.28,0.905,0.684,1.181,1.21c0.275,0.526,0.414,1.161,0.414,1.903
					c0,0.081-0.003,0.165-0.008,0.256c-0.005,0.091-0.012,0.155-0.022,0.195h-6.076v-1.111h4.692l-0.496,0.691
					c0.03-0.059,0.063-0.142,0.098-0.247c0.035-0.106,0.053-0.193,0.053-0.264c0-0.371-0.073-0.691-0.219-0.963
					c-0.145-0.27-0.345-0.48-0.601-0.632c-0.256-0.15-0.554-0.224-0.895-0.224c-0.411,0-0.762,0.089-1.052,0.27
					c-0.291,0.18-0.512,0.44-0.662,0.782c-0.15,0.341-0.231,0.762-0.241,1.263c0,0.501,0.075,0.925,0.226,1.271
					c0.15,0.345,0.374,0.609,0.669,0.788c0.296,0.181,0.655,0.272,1.076,0.272c0.44,0,0.827-0.091,1.158-0.272
					c0.331-0.18,0.606-0.455,0.827-0.826l1.398,0.571c-0.36,0.622-0.827,1.088-1.398,1.398c-0.571,0.312-1.258,0.467-2.061,0.467
					C354.812,65.03,354.193,64.879,353.657,64.579z"/>
				<path d="M362.206,64.879h-1.609v-6.918h1.609V64.879z M363.845,59.421c-0.13-0.061-0.296-0.091-0.496-0.091
					c-0.27,0-0.491,0.069-0.661,0.211c-0.171,0.14-0.294,0.333-0.369,0.579s-0.113,0.533-0.113,0.864l-0.542-0.315
					c0-0.552,0.103-1.041,0.308-1.468c0.205-0.425,0.472-0.764,0.797-1.014s0.664-0.376,1.015-0.376
					c0.251,0,0.486,0.038,0.707,0.112c0.221,0.076,0.406,0.208,0.557,0.399l-0.782,1.369
					C364.115,59.571,363.975,59.48,363.845,59.421z"/>
				<path d="M366.756,63.42c0.205-0.19,0.458-0.285,0.759-0.285c0.301,0,0.552,0.096,0.752,0.285c0.2,0.191,0.301,0.432,0.301,0.722
					c0,0.292-0.101,0.534-0.301,0.729c-0.2,0.196-0.451,0.294-0.752,0.294c-0.301,0-0.554-0.097-0.759-0.294
					c-0.205-0.195-0.308-0.437-0.308-0.729C366.447,63.852,366.55,63.611,366.756,63.42z M368.523,54.352l-0.376,7.34h-1.278
					l-0.376-7.34H368.523z"/>
			</g>
		</g>
		<g>
			<g>
				<path d="M130.902,17.669c2.4,0,4.107,0.478,5.12,1.432c1.014,0.956,1.52,2.4,1.52,4.334v1.677c0,1.958-0.746,3.438-2.237,4.439
					c1.608,0.932,2.412,2.435,2.412,4.508v2.027c0,0.932-0.105,1.771-0.315,2.517c-0.21,0.746-0.554,1.38-1.031,1.905
					c-0.478,0.525-1.113,0.927-1.905,1.206c-0.792,0.279-1.771,0.419-2.936,0.419h-20.76c-0.699,0-1.048-0.35-1.048-1.048V18.718
					c0-0.699,0.35-1.048,1.048-1.048H130.902z M115.07,27.84h14.329c1.165,0,1.957-0.175,2.376-0.525
					c0.42-0.35,0.629-0.862,0.629-1.538v-1.188c0-0.722-0.204-1.252-0.612-1.59c-0.408-0.338-1.066-0.507-1.974-0.507h-14.295
					c-0.303,0-0.454,0.152-0.454,0.454V27.84z M115.07,31.649v5.207c0,0.303,0.151,0.454,0.454,0.454h14.329
					c0.932,0,1.596-0.169,1.992-0.507c0.396-0.337,0.594-0.879,0.594-1.625v-1.328c0-0.722-0.216-1.27-0.647-1.643
					c-0.431-0.372-1.229-0.559-2.394-0.559H115.07z"/>
				<path d="M145.965,15.921c0.512,0,0.769,0.257,0.769,0.769v24.674c0,0.513-0.257,0.769-0.769,0.769h-3.425
					c-0.513,0-0.769-0.256-0.769-0.769V16.69c0-0.512,0.256-0.769,0.769-0.769H145.965z"/>
				<path d="M169.066,22.946c1.561,0,2.878,0.134,3.949,0.402c1.071,0.269,1.928,0.688,2.569,1.258
					c0.64,0.571,1.101,1.305,1.38,2.202c0.279,0.897,0.42,1.975,0.42,3.232v5.033c0,1.258-0.14,2.336-0.42,3.232
					c-0.279,0.898-0.74,1.631-1.38,2.202c-0.641,0.571-1.498,0.984-2.569,1.24c-1.072,0.257-2.389,0.385-3.949,0.385h-9.89
					c-1.585,0-2.907-0.128-3.967-0.385c-1.06-0.256-1.911-0.669-2.551-1.24c-0.641-0.571-1.101-1.304-1.38-2.202
					c-0.279-0.896-0.419-1.974-0.419-3.232v-5.033c0-1.258,0.14-2.336,0.419-3.232c0.279-0.897,0.74-1.631,1.38-2.202
					c0.64-0.571,1.491-0.99,2.551-1.258c1.06-0.268,2.382-0.402,3.967-0.402H169.066z M155.855,34.2
					c0,0.746,0.058,1.364,0.174,1.852c0.116,0.489,0.32,0.88,0.612,1.171c0.291,0.292,0.681,0.502,1.17,0.629
					c0.489,0.129,1.106,0.193,1.852,0.193h8.912c0.769,0,1.398-0.064,1.887-0.193c0.489-0.127,0.879-0.337,1.171-0.629
					c0.291-0.291,0.495-0.681,0.612-1.171c0.116-0.489,0.175-1.106,0.175-1.852v-3.32c0-0.722-0.059-1.328-0.175-1.817
					c-0.117-0.489-0.32-0.885-0.612-1.189c-0.292-0.302-0.681-0.512-1.171-0.628c-0.489-0.116-1.118-0.175-1.887-0.175h-8.912
					c-0.746,0-1.363,0.059-1.852,0.175c-0.489,0.116-0.88,0.326-1.17,0.628c-0.292,0.304-0.496,0.699-0.612,1.189
					c-0.117,0.489-0.174,1.095-0.174,1.817V34.2z"/>
				<path d="M203.037,22.946c0.42,0,0.629,0.21,0.629,0.629v2.936c0,0.42-0.21,0.629-0.629,0.629h-13.56
					c-0.769,0-1.398,0.065-1.887,0.192c-0.489,0.129-0.874,0.338-1.153,0.629c-0.28,0.292-0.478,0.688-0.594,1.189
					c-0.117,0.501-0.174,1.112-0.174,1.834v3.111c0,0.746,0.058,1.363,0.174,1.852c0.116,0.489,0.315,0.88,0.594,1.171
					c0.279,0.292,0.664,0.501,1.153,0.629c0.489,0.128,1.118,0.192,1.887,0.192h13.56c0.42,0,0.629,0.21,0.629,0.629v2.936
					c0,0.419-0.21,0.629-0.629,0.629h-14.05c-1.585,0-2.907-0.128-3.967-0.385c-1.06-0.256-1.911-0.669-2.551-1.24
					c-0.641-0.571-1.101-1.304-1.38-2.202c-0.279-0.896-0.42-1.974-0.42-3.232v-5.033c0-1.258,0.14-2.336,0.42-3.232
					c0.279-0.897,0.739-1.631,1.38-2.202c0.64-0.571,1.491-0.99,2.551-1.258c1.06-0.268,2.382-0.402,3.967-0.402H203.037z"/>
				<path d="M211.18,15.921c0.512,0,0.769,0.257,0.769,0.769v13.84h6.431c0.489,0,0.903-0.017,1.241-0.052
					c0.337-0.035,0.634-0.105,0.891-0.21c0.256-0.105,0.483-0.25,0.681-0.436c0.198-0.187,0.413-0.443,0.647-0.769l3.914-5.522
					c0.14-0.21,0.285-0.361,0.437-0.455c0.151-0.092,0.355-0.14,0.612-0.14h3.949c0.256,0,0.42,0.1,0.489,0.297
					c0.07,0.198,0.023,0.414-0.14,0.646l-4.509,6.186c-0.699,0.955-1.421,1.701-2.167,2.237c0.955,0.536,1.782,1.282,2.481,2.236
					l4.963,6.711c0.14,0.187,0.169,0.379,0.087,0.576c-0.082,0.198-0.251,0.297-0.507,0.297h-3.914
					c-0.303,0-0.524-0.035-0.664-0.105c-0.14-0.07-0.28-0.198-0.42-0.385l-4.264-5.872c-0.419-0.559-0.868-0.944-1.345-1.153
					c-0.478-0.21-1.194-0.315-2.149-0.315h-6.745v7.06c0,0.513-0.257,0.769-0.769,0.769h-3.425c-0.536,0-0.804-0.256-0.804-0.769
					V16.69c0-0.512,0.267-0.769,0.804-0.769H211.18z"/>
				<path fill="#4B4B4B" d="M238.266,17.669c0.233,0,0.396,0.151,0.489,0.454l5.662,18.803c0.023,0.163,0.116,0.244,0.279,0.244
					h0.175c0.14,0,0.233-0.081,0.279-0.244l5.662-17.231c0.256-0.792,0.594-1.328,1.014-1.607c0.419-0.279,0.944-0.419,1.572-0.419
					h3.46c0.769,0,1.357,0.151,1.765,0.454c0.407,0.303,0.739,0.827,0.996,1.572l5.802,17.231c0.046,0.163,0.14,0.244,0.279,0.244
					h0.21c0.14,0,0.233-0.081,0.28-0.244l5.522-18.803c0.046-0.187,0.122-0.309,0.227-0.367c0.105-0.059,0.215-0.087,0.332-0.087
					h4.718c0.186,0,0.297,0.082,0.332,0.244c0.035,0.163,0.018,0.35-0.052,0.559l-6.71,21.005c-0.327,1.048-0.688,1.754-1.083,2.115
					c-0.397,0.361-0.932,0.542-1.608,0.542h-4.089c-0.676,0-1.206-0.187-1.59-0.559c-0.385-0.372-0.752-1.072-1.101-2.097
					l-5.487-16.601c-0.023-0.163-0.117-0.245-0.279-0.245h-0.14c-0.163,0-0.256,0.082-0.279,0.245l-5.557,16.601
					c-0.349,1.026-0.717,1.725-1.101,2.097c-0.384,0.372-0.914,0.559-1.59,0.559h-3.984c-0.397,0-0.74-0.035-1.031-0.105
					c-0.292-0.07-0.554-0.204-0.786-0.402c-0.233-0.197-0.437-0.472-0.612-0.821c-0.175-0.35-0.344-0.792-0.507-1.329l-6.431-21.005
					c-0.07-0.233-0.087-0.425-0.052-0.576c0.035-0.151,0.145-0.227,0.332-0.227H238.266z"/>
				<path fill="#4B4B4B" d="M284.504,15.921c0.512,0,0.769,0.257,0.769,0.769v6.256h13.071c1.561,0,2.877,0.134,3.949,0.402
					c1.071,0.269,1.928,0.688,2.569,1.258c0.64,0.571,1.101,1.305,1.38,2.202c0.279,0.897,0.419,1.975,0.419,3.232v11.324
					c0,0.513-0.256,0.769-0.769,0.769h-3.425c-0.513,0-0.769-0.256-0.769-0.769V31.23c0-0.722-0.047-1.334-0.14-1.835
					c-0.093-0.5-0.274-0.897-0.541-1.188c-0.268-0.291-0.635-0.501-1.101-0.629c-0.466-0.128-1.072-0.192-1.818-0.192h-12.826v13.98
					c0,0.513-0.257,0.769-0.769,0.769h-3.425c-0.513,0-0.769-0.256-0.769-0.769V16.69c0-0.512,0.256-0.769,0.769-0.769H284.504z"/>
				<path fill="#4B4B4B" d="M328.785,22.946c1.188,0,2.172,0.1,2.953,0.297c0.78,0.198,1.398,0.525,1.852,0.979
					c0.455,0.454,0.775,1.048,0.961,1.782c0.186,0.734,0.279,1.625,0.279,2.674v3.321c0,0.745-0.163,1.264-0.489,1.555
					c-0.327,0.292-0.827,0.437-1.503,0.437h-17.649v0.838c0,1.096,0.262,1.887,0.786,2.377c0.524,0.489,1.543,0.734,3.058,0.734
					h14.574c0.42,0,0.629,0.21,0.629,0.629v2.936c0,0.419-0.21,0.629-0.629,0.629h-15.063c-1.585,0-2.907-0.128-3.967-0.385
					c-1.06-0.256-1.911-0.669-2.551-1.24c-0.641-0.571-1.101-1.304-1.38-2.202c-0.279-0.896-0.42-1.974-0.42-3.232v-5.033
					c0-1.258,0.14-2.336,0.42-3.232c0.279-0.897,0.739-1.631,1.38-2.202c0.64-0.571,1.491-0.99,2.551-1.258
					c1.06-0.268,2.382-0.402,3.967-0.402H328.785z M315.189,30.88h14.155c0.396,0,0.594-0.197,0.594-0.594v-1.468
					c0-0.722-0.152-1.234-0.454-1.538c-0.303-0.302-0.863-0.454-1.678-0.454h-8.772c-1.515,0-2.534,0.24-3.058,0.717
					c-0.524,0.478-0.786,1.275-0.786,2.394V30.88z"/>
				<path fill="#4B4B4B" d="M356.359,22.946c1.188,0,2.172,0.1,2.953,0.297c0.78,0.198,1.398,0.525,1.852,0.979
					c0.455,0.454,0.775,1.048,0.961,1.782c0.186,0.734,0.279,1.625,0.279,2.674v3.321c0,0.745-0.163,1.264-0.489,1.555
					c-0.327,0.292-0.827,0.437-1.503,0.437h-17.649v0.838c0,1.096,0.262,1.887,0.786,2.377c0.524,0.489,1.543,0.734,3.058,0.734
					h14.574c0.42,0,0.629,0.21,0.629,0.629v2.936c0,0.419-0.21,0.629-0.629,0.629h-15.063c-1.585,0-2.907-0.128-3.967-0.385
					c-1.06-0.256-1.911-0.669-2.551-1.24c-0.641-0.571-1.101-1.304-1.38-2.202c-0.279-0.896-0.42-1.974-0.42-3.232v-5.033
					c0-1.258,0.14-2.336,0.42-3.232c0.279-0.897,0.739-1.631,1.38-2.202c0.64-0.571,1.491-0.99,2.551-1.258
					c1.06-0.268,2.382-0.402,3.967-0.402H356.359z M342.764,30.88h14.155c0.396,0,0.594-0.197,0.594-0.594v-1.468
					c0-0.722-0.152-1.234-0.454-1.538c-0.303-0.302-0.863-0.454-1.678-0.454h-8.772c-1.515,0-2.534,0.24-3.058,0.717
					c-0.524,0.478-0.786,1.275-0.786,2.394V30.88z"/>
				<path fill="#4B4B4B" d="M370.374,15.921c0.512,0,0.769,0.257,0.769,0.769v24.674c0,0.513-0.257,0.769-0.769,0.769h-3.425
					c-0.513,0-0.769-0.256-0.769-0.769V16.69c0-0.512,0.256-0.769,0.769-0.769H370.374z"/>
				<path fill="#4B4B4B" d="M397.704,22.946c0.419,0,0.629,0.21,0.629,0.629v2.796c0,0.419-0.21,0.629-0.629,0.629h-15.762
					c-0.722,0-1.223,0.134-1.503,0.402c-0.279,0.268-0.419,0.659-0.419,1.171v0.525c0,0.466,0.14,0.833,0.419,1.101
					c0.28,0.268,0.781,0.402,1.503,0.402h11.778c1.957,0,3.355,0.407,4.194,1.223c0.839,0.816,1.258,1.969,1.258,3.46v1.958
					c0,0.769-0.094,1.457-0.28,2.062c-0.187,0.607-0.495,1.119-0.926,1.538c-0.431,0.42-0.996,0.74-1.695,0.962
					c-0.699,0.222-1.561,0.332-2.586,0.332H375.79c-0.42,0-0.629-0.21-0.629-0.629v-2.796c0-0.419,0.21-0.629,0.629-0.629h16.566
					c0.722,0,1.229-0.127,1.52-0.384c0.291-0.256,0.437-0.687,0.437-1.293v-0.944c0-0.465-0.146-0.827-0.437-1.083
					c-0.292-0.256-0.798-0.384-1.52-0.384h-11.743c-1.957,0-3.355-0.402-4.194-1.206c-0.839-0.804-1.258-1.975-1.258-3.513v-1.538
					c0-0.722,0.093-1.38,0.279-1.974c0.186-0.594,0.495-1.101,0.926-1.521c0.431-0.419,0.996-0.739,1.695-0.961
					c0.699-0.222,1.561-0.333,2.586-0.333H397.704z"/>
			</g>
		</g>
	</g>
	<g>
		<g>
			<path d="M23.804,59.55c-0.329-0.658-0.628-1.436-0.914-2.38l-1.213-3.962H8.734c-0.457,0-0.684-0.228-0.684-0.684v-7.84h21.573
				c1.706,0,2.88,0.271,3.541,0.802l6.422-19.548c0.012-0.039,0.029-0.069,0.042-0.107c-0.012-0.011-0.022-0.025-0.034-0.036
				c-1.526-1.437-4.096-2.156-7.709-2.156H1.578C0.526,23.639,0,24.164,0,25.217v33.675c0,1.052,0.526,1.578,1.578,1.578h22.794
				C24.17,60.184,23.973,59.888,23.804,59.55z M8.051,31.583c0-0.455,0.227-0.684,0.684-0.684h21.52
				c1.368,0,2.359,0.255,2.973,0.764c0.613,0.509,0.921,1.307,0.921,2.394v1.789c0,1.018-0.316,1.789-0.947,2.315
				c-0.631,0.526-1.824,0.79-3.578,0.79H8.051V31.583z"/>
			<g>
				<path fill="#4B4B4B" d="M26.424,33.306h-6.286c-1.013,0-1.738,0.98-1.441,1.949l0.395,1.289h8.307L26.424,33.306z"/>
				<path fill="#4B4B4B" d="M81.782,24.007c-0.052-0.244-0.219-0.368-0.499-0.368h-7.103c-0.176,0-0.342,0.043-0.5,0.132
					c-0.158,0.087-0.272,0.271-0.342,0.552l-8.313,28.308c-0.071,0.246-0.211,0.368-0.421,0.368h-0.316
					c-0.21,0-0.351-0.122-0.421-0.368L55.132,26.69c-0.387-1.121-0.886-1.911-1.5-2.367c-0.614-0.456-1.5-0.684-2.657-0.684h-5.21
					c-0.947,0-1.736,0.21-2.367,0.631c-0.632,0.421-1.141,1.228-1.526,2.42l-8.524,25.941c-0.071,0.246-0.21,0.368-0.421,0.368
					h-0.263c-0.246,0-0.386-0.122-0.421-0.368l-1.668-5.539h-0.952h-7.302l2.872,9.379c0.245,0.807,0.499,1.474,0.763,2
					c0.263,0.525,0.57,0.939,0.921,1.236c0.35,0.298,0.745,0.499,1.184,0.605c0.438,0.105,0.955,0.157,1.552,0.157h5.998
					c1.017,0,1.815-0.281,2.394-0.841c0.579-0.561,1.132-1.614,1.658-3.158l8.366-24.992c0.035-0.246,0.175-0.369,0.421-0.369h0.211
					c0.245,0,0.385,0.123,0.421,0.369l8.261,24.992c0.526,1.544,1.078,2.597,1.658,3.158c0.579,0.561,1.376,0.841,2.394,0.841h6.156
					c1.017,0,1.823-0.271,2.42-0.816c0.596-0.543,1.139-1.605,1.631-3.184l10.102-31.623C81.808,24.533,81.835,24.253,81.782,24.007
					z"/>
			</g>
		</g>
		<g>
			<path d="M18.681,19.82c3.597-5.432,8.721-9.944,15.11-12.796C49.033,0.22,66.506,5.032,76.304,17.653
				C67.622,5.488,52.716-1.652,36.844,0.328C23.761,1.96,12.841,9.442,6.366,19.82H18.681z"/>
			<path fill="#4B4B4B" d="M83.777,36.849c-0.063-0.504-0.145-1-0.225-1.497c1.749,15.007-6.281,30.046-20.807,36.53
				c-13.952,6.228-29.777,2.725-39.87-7.593H6.36c8.404,13.47,24.106,21.587,40.896,19.492
				C70.301,80.906,86.652,59.894,83.777,36.849z"/>
		</g>
	</g>
</g>
</svg>
