<svg xmlns="http://www.w3.org/2000/svg" xmlns:xlink="http://www.w3.org/1999/xlink" version="1.1" id="Layer_1" x="0px" y="0px" viewBox="3 -5 120 160" style="enable-background:new 3 -5 120 160;" xml:space="preserve">

<rect x="3" y="-5" style="fill:#FFFFFF;" width="120" height="160"/>
<text transform="matrix(1 0 0 1 15.754 17.448)" style="font-family:'ArialMT'; font-size:12px;">Landscape</text>
<g id="XMLID_167_">
	<g id="XMLID_156_">
		<path id="XMLID_166_" style="fill:#E3E3E3;" d="M98.224,98.171H27.776c-0.383,0-0.696-0.313-0.696-0.696v-0.657    c0-0.383,0.313-0.696,0.696-0.696h70.448c0.383,0,0.696,0.313,0.696,0.696v0.657C98.92,97.858,98.607,98.171,98.224,98.171z"/>
		<path id="XMLID_187_" style="fill:#E3E3E3;" d="M98.224,93.084H27.776c-0.383,0-0.696-0.313-0.696-0.696v-0.657    c0-0.383,0.313-0.696,0.696-0.696h70.448c0.383,0,0.696,0.313,0.696,0.696v0.657C98.92,92.771,98.607,93.084,98.224,93.084z"/>
		<path id="XMLID_165_" style="fill:#E3E3E3;" d="M34.022,103.258H27.3c-0.121,0-0.22-0.099-0.22-0.22v-1.609    c0-0.121,0.099-0.22,0.22-0.22h6.722c0.121,0,0.22,0.099,0.22,0.22v1.609C34.242,103.159,34.143,103.258,34.022,103.258z"/>
		<path id="XMLID_164_" style="fill:#E3E3E3;" d="M43.155,103.258h-6.722c-0.121,0-0.22-0.099-0.22-0.22v-1.609    c0-0.121,0.099-0.22,0.22-0.22h6.722c0.121,0,0.22,0.099,0.22,0.22v1.609C43.375,103.159,43.276,103.258,43.155,103.258z"/>
		<path id="XMLID_163_" style="fill:#E3E3E3;" d="M52.289,103.258h-6.722c-0.121,0-0.22-0.099-0.22-0.22v-1.609    c0-0.121,0.099-0.22,0.22-0.22h6.722c0.121,0,0.22,0.099,0.22,0.22v1.609C52.508,103.159,52.41,103.258,52.289,103.258z"/>
		<path id="XMLID_162_" style="fill:#E3E3E3;" d="M98.224,108.345H27.776c-0.383,0-0.696-0.313-0.696-0.696v-0.657    c0-0.383,0.313-0.696,0.696-0.696h70.448c0.383,0,0.696,0.313,0.696,0.696v0.657C98.92,108.032,98.607,108.345,98.224,108.345z"/>
		<path id="XMLID_161_" style="fill:#E3E3E3;" d="M98.001,113.432H27.999c-0.506,0-0.919-0.414-0.919-0.919v-0.21    c0-0.506,0.414-0.919,0.919-0.919h70.001c0.506,0,0.919,0.414,0.919,0.919v0.21C98.92,113.018,98.506,113.432,98.001,113.432z"/>
		<path id="XMLID_159_" style="fill:#E3E3E3;" d="M98.001,118.519H27.999c-0.506,0-0.919-0.414-0.919-0.919v-0.21    c0-0.506,0.414-0.919,0.919-0.919h70.001c0.506,0,0.919,0.414,0.919,0.919v0.21C98.92,118.105,98.506,118.519,98.001,118.519z"/>
		<path id="XMLID_204_" style="fill:#E3E3E3;" d="M98.001,123.606H27.999c-0.506,0-0.919-0.414-0.919-0.919v-0.21    c0-0.506,0.414-0.919,0.919-0.919h70.001c0.506,0,0.919,0.414,0.919,0.919v0.21C98.92,123.192,98.506,123.606,98.001,123.606z"/>
	</g>
	<g id="XMLID_203_">
		<path id="XMLID_149_" style="fill:#E3E3E3;" d="M49.215,136.79H28.039c-0.527,0-0.959-0.432-0.959-0.959v-5.017    c0-0.527,0.432-0.959,0.959-0.959h21.176c0.527,0,0.959,0.432,0.959,0.959v5.017C50.174,136.359,49.742,136.79,49.215,136.79z"/>
		<g id="XMLID_148_">
			<polygon style="fill:#A6A8AB;" points="42.203,136.877 38.663,137.018 40.61,141.279 39.422,141.822 37.475,137.561      35.051,140.145 35.129,130.856    "/>
		</g>
	</g>
</g>
<path style="fill:#E3E3E3;" d="M104.91,27.83H20.83c-2.64,0-4.79,2.15-4.79,4.79v46.26c0,2.64,2.15,4.79,4.79,4.79h84.08  c2.65,0,4.79-2.15,4.79-4.79V32.62C109.7,29.98,107.56,27.83,104.91,27.83z M53.86,38.52c2.16,0,3.9,1.75,3.9,3.9  c0,2.15-1.74,3.9-3.9,3.9c-2.15,0-3.9-1.75-3.9-3.9C49.96,40.27,51.71,38.52,53.86,38.52z M83.11,75H41.55  c-1.94,0-2.74-1.38-1.76-3.06l8.78-15.22c0.98-1.69,2.57-1.69,3.54,0l3.76,6.51l10.22-17.7c1.57-2.72,4.14-2.72,5.71,0l14.16,24.53  C87.53,72.78,86.25,75,83.11,75z"/>
</svg>