<svg xmlns="http://www.w3.org/2000/svg" viewBox="0 0 120 160"><defs><style>.a{fill:#fff;}.b{fill:#e3e3e4;}.c{fill:#c7c7c8;}.d{font-size:12px;font-family:Roboto-Regular, Roboto;}</style></defs><g transform="translate(-575 -179)"><rect class="a" width="120" height="160" transform="translate(575 179)"/><g transform="translate(619.017 211.951)"><rect class="b" width="62.87" height="52.877" transform="translate(0)"/><rect class="c" width="62.727" height="1.429" rx="0.546" transform="translate(0 112.178)"/><rect class="c" width="62.727" height="1.429" rx="0.546" transform="translate(0 76.814)"/><rect class="c" width="54.563" height="2.858" rx="1.091" transform="translate(0 61.928)"/><rect class="c" width="46.884" height="2.858" rx="1.091" transform="translate(0 68.359)"/><rect class="c" width="53.168" height="1.429" rx="0.546" transform="translate(0 81.816)"/><rect class="c" width="59.142" height="1.429" rx="0.546" transform="translate(0 86.818)"/><rect class="c" width="39.428" height="1.429" rx="0.546" transform="translate(0 91.82)"/><rect class="c" width="62.727" height="1.429" rx="0.546" transform="translate(0 96.822)"/><rect class="c" width="53.168" height="1.429" rx="0.546" transform="translate(0 101.822)"/><rect class="c" width="39.428" height="1.429" rx="0.546" transform="translate(0 106.587)"/></g><text class="d" transform="translate(586.788 201.478)"><tspan x="0" y="0">Left Sidebar</tspan></text><rect class="b" width="23.576" height="113.951" transform="translate(588.098 211.951)"/></g></svg>