<svg width="20" height="20" viewBox="0 0 24 24" fill="none" xmlns="http://www.w3.org/2000/svg">
<circle cx="12" cy="12" r="12" fill="#1C1C1C"/>
<circle cx="12" cy="12" r="12" fill="url(#paint0_linear_506_96)"/>
<path d="M7.57292 5.55017H9.50275C9.50275 9.55013 9.50275 13.5501 9.50275 17.55H5.1481L5.14823 15.6116H7.37149L7.38327 8.13444C7.00558 8.4229 6.61519 8.65141 6.21191 8.81968C5.75831 9.01368 5.28767 9.09927 4.80005 9.07646V7.27903C5.06086 7.29043 5.35571 7.21628 5.68455 7.05654C6.02475 6.88537 6.35931 6.66282 6.68817 6.38895C6.99648 6.13219 7.27467 5.87005 7.52319 5.60324V5.55017H7.57267L7.57279 5.55005L7.57292 5.55017Z" fill="white"/>
<path d="M14.9287 5.55005C15.9814 5.55011 16.8937 5.81631 17.665 6.3479C18.4466 6.87948 18.9939 7.58283 19.3066 8.45825L17.5557 9.24048C17.3264 8.65678 16.982 8.20848 16.5234 7.89575C16.0649 7.57266 15.5332 7.41047 14.9287 7.4104C14.3867 7.4104 13.9488 7.54666 13.6152 7.81763C13.2921 8.07824 13.1299 8.42245 13.1299 8.84985C13.13 9.17269 13.2342 9.45923 13.4424 9.70923C13.6613 9.94898 13.9795 10.1372 14.3965 10.2727L16.5391 10.9446C18.3946 11.5388 19.3223 12.613 19.3223 14.1663C19.3222 14.8332 19.1505 15.4222 18.8066 15.9329C18.4627 16.4436 17.9882 16.8451 17.3838 17.137C16.9614 17.3409 16.4143 17.4597 15.8496 17.5139V17.55H10.4756V15.5959H15.3613C15.9137 15.5959 16.3774 15.584 16.7109 15.3235C17.0549 15.0629 17.2265 14.7186 17.2266 14.2913C17.2266 13.9472 17.1226 13.6654 16.9141 13.4465C16.716 13.2277 16.4133 13.0508 16.0068 12.9153L13.7715 12.1956C12.8645 11.9037 12.1813 11.4815 11.7227 10.929C11.2641 10.3662 11.0352 9.70437 11.0352 8.9436C11.0352 8.27643 11.1964 7.68683 11.5195 7.17603C11.8531 6.66532 12.3118 6.26897 12.8955 5.98755C13.4897 5.6957 14.1678 5.55005 14.9287 5.55005Z" fill="white"/>
<g opacity="0.3">
<path d="M8.32292 6.45008H10.2528C10.2528 10.45 10.2528 14.45 10.2528 18.45H5.8981L5.89823 16.5115H8.12149L8.13327 9.03435C7.75558 9.3228 7.36519 9.55132 6.96191 9.71958C6.50831 9.91358 6.03767 9.99918 5.55005 9.97636V8.17893C5.81086 8.19033 6.10571 8.11619 6.43455 7.95644C6.77475 7.78527 7.10931 7.56272 7.43817 7.28885C7.74648 7.03209 8.02467 6.76995 8.27319 6.50315V6.45008H8.32267L8.32279 6.44995L8.32292 6.45008Z" fill="white"/>
<path d="M15.6787 6.45007C16.7314 6.45014 17.6437 6.71634 18.415 7.24792C19.1966 7.77951 19.7439 8.48284 20.0566 9.35828L18.3057 10.1405C18.0764 9.55681 17.732 9.10851 17.2734 8.79578C16.8149 8.47268 16.2832 8.31049 15.6787 8.31042C15.1367 8.31042 14.6988 8.44667 14.3652 8.71765C14.0421 8.97827 13.8799 9.32247 13.8799 9.74988C13.88 10.0727 13.9842 10.3593 14.1924 10.6093C14.4113 10.849 14.7295 11.0372 15.1465 11.1727L17.2891 11.8446C19.1446 12.4388 20.0723 13.513 20.0723 15.0663C20.0722 15.7332 19.9005 16.3222 19.5566 16.8329C19.2127 17.3436 18.7382 17.7451 18.1338 18.037C17.7114 18.2409 17.1643 18.3598 16.5996 18.4139V18.4501H11.2256V16.496H16.1113C16.6637 16.496 17.1274 16.484 17.4609 16.2235C17.8049 15.9629 17.9765 15.6186 17.9766 15.1913C17.9766 14.8473 17.8726 14.5655 17.6641 14.3466C17.466 14.1277 17.1633 13.9508 16.7568 13.8153L14.5215 13.0956C13.6145 12.8037 12.9313 12.3815 12.4727 11.829C12.0141 11.2662 11.7852 10.6044 11.7852 9.84363C11.7852 9.17646 11.9464 8.58685 12.2695 8.07605C12.6031 7.56533 13.0618 7.169 13.6455 6.88757C14.2397 6.59572 14.9178 6.45007 15.6787 6.45007Z" fill="white"/>
</g>
<defs>
<linearGradient id="paint0_linear_506_96" x1="0" y1="12" x2="22.2" y2="12" gradientUnits="userSpaceOnUse">
<stop stop-color="#AD3B6C"/>
<stop offset="1" stop-color="#E6543B"/>
</linearGradient>
</defs>
</svg>
