<svg xmlns="http://www.w3.org/2000/svg" viewBox="0 0 120 160"><defs><style>.a{fill:#fff;}.b{fill:#e3e3e4;}.c{fill:#c7c7c8;}.d{font-size:12px;font-family:Roboto-Regular, Roboto;}</style></defs><g transform="translate(-472 -193)"><rect class="a" width="120" height="160" transform="translate(472 193)"/><rect class="b" width="93.93" height="52.658" transform="translate(485.028 225.875)"/><g transform="translate(485.028 288.149)"><rect class="c" width="93.716" height="1.423" rx="0.546" transform="translate(0 50.041)"/><rect class="c" width="93.716" height="1.423" rx="0.546" transform="translate(0 14.824)"/><rect class="c" width="81.519" height="2.846" rx="1.091"/><rect class="c" width="70.046" height="2.846" rx="1.091" transform="translate(0 6.404)"/><rect class="c" width="79.435" height="1.423" rx="0.546" transform="translate(0 19.805)"/><rect class="c" width="88.36" height="1.423" rx="0.546" transform="translate(0 24.787)"/><rect class="c" width="58.907" height="1.423" rx="0.546" transform="translate(0 29.768)"/><rect class="c" width="93.716" height="1.423" rx="0.546" transform="translate(0 34.749)"/><rect class="c" width="79.435" height="1.423" rx="0.546" transform="translate(0 39.729)"/><rect class="c" width="58.907" height="1.423" rx="0.546" transform="translate(0 44.474)"/></g><text class="d" transform="translate(483.739 215.435)"><tspan x="0" y="0">No Sidebar</tspan></text></g></svg>