<svg xmlns="http://www.w3.org/2000/svg" xmlns:xlink="http://www.w3.org/1999/xlink" version="1.1" id="Layer_1" x="0px" y="0px" viewBox="3 -5 120 160" style="enable-background:new 3 -5 120 160;" xml:space="preserve">

<rect x="3" y="-5" style="fill:#FFFFFF;" width="120" height="160"/>
<text transform="matrix(1 0 0 1 15.754 17.448)" style="font-family:'ArialMT'; font-size:12px;">Portraint</text>
<path style="fill:#E3E3E4;" d="M64.384,27.833h-43.72c-2.55,0-4.62,2.06-4.62,4.61v104.87c0,2.55,2.07,4.62,4.62,4.62h43.72  c2.55,0,4.62-2.07,4.62-4.62V32.443C69.004,29.893,66.934,27.833,64.384,27.833z M31.874,65.613c2.04,0,3.69,1.65,3.69,3.69  c0,2.04-1.65,3.69-3.69,3.69s-3.69-1.65-3.69-3.69C28.184,67.263,29.834,65.613,31.874,65.613z M61.574,104.153h-39.36  c-1.84,0-2.6-1.3-1.67-2.9l8.32-14.41c0.92-1.6,2.43-1.6,3.35,0l3.56,6.17l9.68-16.77c1.49-2.57,3.92-2.57,5.4,0l13.42,23.23  C65.754,102.053,64.544,104.153,61.574,104.153z"/>
<g id="XMLID_167_">
	<g id="XMLID_156_">
		<path id="XMLID_166_" style="fill:#E3E3E3;" d="M109.448,66.625H73.906c-0.273,0-0.496-0.223-0.496-0.496v-1.056    c0-0.273,0.223-0.496,0.496-0.496h35.541c0.273,0,0.496,0.223,0.496,0.496v1.056C109.944,66.402,109.721,66.625,109.448,66.625z"/>
		<path id="XMLID_187_" style="fill:#E3E3E3;" d="M109.448,61.539H73.906c-0.273,0-0.496-0.223-0.496-0.496v-1.056    c0-0.273,0.223-0.496,0.496-0.496h35.541c0.273,0,0.496,0.223,0.496,0.496v1.056C109.944,61.315,109.721,61.539,109.448,61.539z"/>
		<path id="XMLID_165_" style="fill:#E3E3E3;" d="M80.352,71.712H73.63c-0.121,0-0.22-0.099-0.22-0.22v-1.609    c0-0.121,0.099-0.22,0.22-0.22h6.722c0.121,0,0.22,0.099,0.22,0.22v1.609C80.572,71.614,80.473,71.712,80.352,71.712z"/>
		<path id="XMLID_164_" style="fill:#E3E3E3;" d="M89.485,71.712h-6.722c-0.121,0-0.22-0.099-0.22-0.22v-1.609    c0-0.121,0.099-0.22,0.22-0.22h6.722c0.121,0,0.22,0.099,0.22,0.22v1.609C89.705,71.614,89.606,71.712,89.485,71.712z"/>
		<path id="XMLID_163_" style="fill:#E3E3E3;" d="M98.619,71.712h-6.722c-0.121,0-0.22-0.099-0.22-0.22v-1.609    c0-0.121,0.099-0.22,0.22-0.22h6.722c0.121,0,0.22,0.099,0.22,0.22v1.609C98.839,71.614,98.74,71.712,98.619,71.712z"/>
		<path id="XMLID_162_" style="fill:#E3E3E3;" d="M109.448,76.799H73.906c-0.273,0-0.496-0.223-0.496-0.496v-1.056    c0-0.273,0.223-0.496,0.496-0.496h35.541c0.273,0,0.496,0.223,0.496,0.496v1.056C109.944,76.576,109.721,76.799,109.448,76.799z"/>
		<path id="XMLID_161_" style="fill:#E3E3E3;" d="M109.289,81.886H74.066c-0.36,0-0.655-0.295-0.655-0.655v-0.737    c0-0.36,0.295-0.655,0.655-0.655h35.223c0.36,0,0.655,0.295,0.655,0.655v0.737C109.944,81.591,109.649,81.886,109.289,81.886z"/>
		<path id="XMLID_159_" style="fill:#E3E3E3;" d="M109.289,86.973H74.066c-0.36,0-0.655-0.295-0.655-0.655V85.58    c0-0.36,0.295-0.655,0.655-0.655h35.223c0.36,0,0.655,0.295,0.655,0.655v0.737C109.944,86.678,109.649,86.973,109.289,86.973z"/>
		<path id="XMLID_204_" style="fill:#E3E3E3;" d="M109.289,92.06H74.066c-0.36,0-0.655-0.295-0.655-0.655v-0.737    c0-0.36,0.295-0.655,0.655-0.655h35.223c0.36,0,0.655,0.295,0.655,0.655v0.737C109.944,91.765,109.649,92.06,109.289,92.06z"/>
	</g>
	<g id="XMLID_203_">
		<path id="XMLID_149_" style="fill:#E3E3E3;" d="M95.545,105.245H74.369c-0.527,0-0.959-0.432-0.959-0.959v-5.017    c0-0.527,0.432-0.959,0.959-0.959h21.176c0.527,0,0.959,0.432,0.959,0.959v5.017C96.504,104.813,96.073,105.245,95.545,105.245z"/>
		<g id="XMLID_148_">
			<polygon style="fill:#A6A8AB;" points="88.533,105.331 84.993,105.473 86.94,109.733 85.752,110.276 83.805,106.016      81.382,108.599 81.459,99.31    "/>
		</g>
	</g>
</g>
</svg>