<svg xmlns="http://www.w3.org/2000/svg" viewBox="0 0 120 160"><defs><style>.a{fill:#fff;}.b{fill:#e3e3e4;}.c{fill:#c7c7c8;}.d{font-size:12px;font-family:Roboto-Regular, Roboto;}</style></defs><g transform="translate(-704 -558)"><g transform="translate(268 375)"><rect class="a" width="120" height="160" transform="translate(436 183)"/><rect class="b" width="62.688" height="52.725" transform="translate(449.044 215.854)"/><rect class="c" width="62.546" height="1.425" rx="0.546" transform="translate(449.044 328.172)"/><rect class="c" width="62.546" height="1.425" rx="0.546" transform="translate(449.044 292.704)"/><rect class="c" width="54.406" height="2.85" rx="1.091" transform="translate(449.044 277.802)"/><rect class="c" width="46.749" height="2.85" rx="1.091" transform="translate(449.044 284.242)"/><rect class="c" width="53.015" height="1.425" rx="0.546" transform="translate(449.044 297.713)"/><rect class="c" width="58.971" height="1.425" rx="0.546" transform="translate(449.044 302.721)"/><rect class="c" width="39.315" height="1.425" rx="0.546" transform="translate(449.044 307.73)"/><rect class="c" width="62.546" height="1.425" rx="0.546" transform="translate(449.044 312.86)"/><rect class="c" width="53.015" height="1.425" rx="0.546" transform="translate(449.044 317.846)"/><rect class="c" width="39.315" height="1.425" rx="0.546" transform="translate(449.044 322.597)"/><text class="d" transform="translate(447.754 205.448)"><tspan x="0" y="0">Right Sidebar</tspan></text><rect class="b" width="23.508" height="113.623" transform="translate(519.432 216.317)"/></g></g></svg>